<mxfile host="app.diagrams.net" modified="2021-01-05T15:54:59.794Z" agent="5.0 (Macintosh; Intel Mac OS X 10_14_6) AppleWebKit/537.36 (KHTML, like Gecko) Chrome/87.0.4280.88 Safari/537.36" etag="e3Z849M6JfxFivKoDZ54" version="14.1.8" type="github">
  <diagram id="ucg55ADvPjZWaIj-q-8C" name="OverviewNews">
    <mxGraphModel dx="1123" dy="973" grid="1" gridSize="10" guides="1" tooltips="1" connect="1" arrows="1" fold="1" page="1" pageScale="1" pageWidth="850" pageHeight="1100" math="0" shadow="0">
      <root>
        <mxCell id="QJ0N2ptPAILmxP9ZiV2n-0" />
        <mxCell id="QJ0N2ptPAILmxP9ZiV2n-1" parent="QJ0N2ptPAILmxP9ZiV2n-0" />
        <mxCell id="PEPabtiiQY726mJaul-J-2" style="edgeStyle=orthogonalEdgeStyle;rounded=0;orthogonalLoop=1;jettySize=auto;html=1;entryX=0.5;entryY=0;entryDx=0;entryDy=0;" parent="QJ0N2ptPAILmxP9ZiV2n-1" source="QJ0N2ptPAILmxP9ZiV2n-2" target="PEPabtiiQY726mJaul-J-0" edge="1">
          <mxGeometry relative="1" as="geometry" />
        </mxCell>
        <mxCell id="QJ0N2ptPAILmxP9ZiV2n-2" value="Overview Page&lt;br&gt;(News &amp;amp; Insights)" style="rounded=1;whiteSpace=wrap;html=1;" parent="QJ0N2ptPAILmxP9ZiV2n-1" vertex="1">
          <mxGeometry x="315" y="70" width="120" height="40" as="geometry" />
        </mxCell>
        <mxCell id="PEPabtiiQY726mJaul-J-6" style="edgeStyle=orthogonalEdgeStyle;rounded=0;orthogonalLoop=1;jettySize=auto;html=1;exitX=0.5;exitY=1;exitDx=0;exitDy=0;entryX=0;entryY=0.5;entryDx=0;entryDy=0;entryPerimeter=0;" parent="QJ0N2ptPAILmxP9ZiV2n-1" source="PEPabtiiQY726mJaul-J-0" target="PEPabtiiQY726mJaul-J-5" edge="1">
          <mxGeometry relative="1" as="geometry" />
        </mxCell>
        <mxCell id="PEPabtiiQY726mJaul-J-0" value="Page loads" style="rhombus;whiteSpace=wrap;html=1;" parent="QJ0N2ptPAILmxP9ZiV2n-1" vertex="1">
          <mxGeometry x="335" y="140" width="80" height="80" as="geometry" />
        </mxCell>
        <mxCell id="PEPabtiiQY726mJaul-J-23" style="edgeStyle=orthogonalEdgeStyle;rounded=0;orthogonalLoop=1;jettySize=auto;html=1;exitX=1;exitY=0;exitDx=0;exitDy=0;exitPerimeter=0;entryX=0.5;entryY=0;entryDx=0;entryDy=0;" parent="QJ0N2ptPAILmxP9ZiV2n-1" source="PEPabtiiQY726mJaul-J-5" target="PEPabtiiQY726mJaul-J-7" edge="1">
          <mxGeometry relative="1" as="geometry" />
        </mxCell>
        <mxCell id="PEPabtiiQY726mJaul-J-24" style="edgeStyle=orthogonalEdgeStyle;rounded=0;orthogonalLoop=1;jettySize=auto;html=1;exitX=1;exitY=1;exitDx=0;exitDy=0;exitPerimeter=0;entryX=0.5;entryY=0;entryDx=0;entryDy=0;" parent="QJ0N2ptPAILmxP9ZiV2n-1" source="PEPabtiiQY726mJaul-J-5" target="PEPabtiiQY726mJaul-J-8" edge="1">
          <mxGeometry relative="1" as="geometry" />
        </mxCell>
        <mxCell id="PEPabtiiQY726mJaul-J-5" value="" style="strokeWidth=2;html=1;shape=mxgraph.flowchart.annotation_2;align=left;labelPosition=right;pointerEvents=1;rotation=90;" parent="QJ0N2ptPAILmxP9ZiV2n-1" vertex="1">
          <mxGeometry x="360" y="90" width="30" height="336.25" as="geometry" />
        </mxCell>
        <mxCell id="PEPabtiiQY726mJaul-J-19" style="edgeStyle=orthogonalEdgeStyle;rounded=0;orthogonalLoop=1;jettySize=auto;html=1;exitX=0.5;exitY=1;exitDx=0;exitDy=0;entryX=1;entryY=0.5;entryDx=0;entryDy=0;entryPerimeter=0;" parent="QJ0N2ptPAILmxP9ZiV2n-1" source="PEPabtiiQY726mJaul-J-7" target="PEPabtiiQY726mJaul-J-17" edge="1">
          <mxGeometry relative="1" as="geometry" />
        </mxCell>
        <mxCell id="PEPabtiiQY726mJaul-J-7" value="Loads Recent News&lt;br&gt;(ods.svc/ retrieveMarketNewsDocumentList)" style="shape=process;whiteSpace=wrap;html=1;backgroundOutline=1;" parent="QJ0N2ptPAILmxP9ZiV2n-1" vertex="1">
          <mxGeometry x="420" y="300" width="241" height="60" as="geometry" />
        </mxCell>
        <mxCell id="PEPabtiiQY726mJaul-J-18" style="edgeStyle=orthogonalEdgeStyle;rounded=0;orthogonalLoop=1;jettySize=auto;html=1;entryX=-0.01;entryY=0.683;entryDx=0;entryDy=0;entryPerimeter=0;exitX=0.5;exitY=1;exitDx=0;exitDy=0;" parent="QJ0N2ptPAILmxP9ZiV2n-1" source="PEPabtiiQY726mJaul-J-8" target="PEPabtiiQY726mJaul-J-17" edge="1">
          <mxGeometry relative="1" as="geometry" />
        </mxCell>
        <mxCell id="PEPabtiiQY726mJaul-J-8" value="&lt;span&gt;Loads Ameriprise Analyst News&lt;/span&gt;&lt;br&gt;&lt;span&gt;(ods.svc/ retrieveIRGDocumentList)&lt;/span&gt;" style="shape=process;whiteSpace=wrap;html=1;backgroundOutline=1;" parent="QJ0N2ptPAILmxP9ZiV2n-1" vertex="1">
          <mxGeometry x="110" y="300" width="190" height="60" as="geometry" />
        </mxCell>
        <mxCell id="PEPabtiiQY726mJaul-J-22" style="edgeStyle=orthogonalEdgeStyle;rounded=0;orthogonalLoop=1;jettySize=auto;html=1;entryX=0.5;entryY=0;entryDx=0;entryDy=0;entryPerimeter=0;" parent="QJ0N2ptPAILmxP9ZiV2n-1" source="PEPabtiiQY726mJaul-J-17" target="PEPabtiiQY726mJaul-J-21" edge="1">
          <mxGeometry relative="1" as="geometry" />
        </mxCell>
        <mxCell id="PEPabtiiQY726mJaul-J-17" value="limits data" style="strokeWidth=2;html=1;shape=mxgraph.flowchart.delay;whiteSpace=wrap;" parent="QJ0N2ptPAILmxP9ZiV2n-1" vertex="1">
          <mxGeometry x="315" y="380" width="100" height="40" as="geometry" />
        </mxCell>
        <mxCell id="PEPabtiiQY726mJaul-J-26" style="edgeStyle=orthogonalEdgeStyle;rounded=0;orthogonalLoop=1;jettySize=auto;html=1;" parent="QJ0N2ptPAILmxP9ZiV2n-1" source="PEPabtiiQY726mJaul-J-21" target="PEPabtiiQY726mJaul-J-25" edge="1">
          <mxGeometry relative="1" as="geometry" />
        </mxCell>
        <mxCell id="PEPabtiiQY726mJaul-J-21" value="Overview News Insight" style="strokeWidth=2;html=1;shape=mxgraph.flowchart.display;whiteSpace=wrap;" parent="QJ0N2ptPAILmxP9ZiV2n-1" vertex="1">
          <mxGeometry x="290" y="470" width="150" height="50" as="geometry" />
        </mxCell>
        <mxCell id="PEPabtiiQY726mJaul-J-29" style="edgeStyle=orthogonalEdgeStyle;rounded=0;orthogonalLoop=1;jettySize=auto;html=1;entryX=0.5;entryY=0;entryDx=0;entryDy=0;" parent="QJ0N2ptPAILmxP9ZiV2n-1" source="PEPabtiiQY726mJaul-J-25" target="PEPabtiiQY726mJaul-J-28" edge="1">
          <mxGeometry relative="1" as="geometry" />
        </mxCell>
        <mxCell id="PEPabtiiQY726mJaul-J-25" value="User click Positions News" style="rounded=1;whiteSpace=wrap;html=1;" parent="QJ0N2ptPAILmxP9ZiV2n-1" vertex="1">
          <mxGeometry x="287.5" y="560" width="155" height="30" as="geometry" />
        </mxCell>
        <mxCell id="PEPabtiiQY726mJaul-J-31" value="Yes" style="edgeStyle=orthogonalEdgeStyle;rounded=0;orthogonalLoop=1;jettySize=auto;html=1;entryX=0;entryY=0.5;entryDx=0;entryDy=0;entryPerimeter=0;" parent="QJ0N2ptPAILmxP9ZiV2n-1" source="PEPabtiiQY726mJaul-J-28" target="PEPabtiiQY726mJaul-J-30" edge="1">
          <mxGeometry relative="1" as="geometry" />
        </mxCell>
        <mxCell id="PEPabtiiQY726mJaul-J-33" value="No" style="edgeStyle=orthogonalEdgeStyle;rounded=0;orthogonalLoop=1;jettySize=auto;html=1;entryX=0.5;entryY=0;entryDx=0;entryDy=0;" parent="QJ0N2ptPAILmxP9ZiV2n-1" source="PEPabtiiQY726mJaul-J-28" target="PEPabtiiQY726mJaul-J-32" edge="1">
          <mxGeometry relative="1" as="geometry" />
        </mxCell>
        <mxCell id="PEPabtiiQY726mJaul-J-28" value="is Position News&lt;br&gt;&amp;nbsp;Data loaded?" style="rhombus;whiteSpace=wrap;html=1;" parent="QJ0N2ptPAILmxP9ZiV2n-1" vertex="1">
          <mxGeometry x="280" y="620" width="170" height="90" as="geometry" />
        </mxCell>
        <mxCell id="PEPabtiiQY726mJaul-J-30" value="Display Position News data" style="strokeWidth=2;html=1;shape=mxgraph.flowchart.display;whiteSpace=wrap;" parent="QJ0N2ptPAILmxP9ZiV2n-1" vertex="1">
          <mxGeometry x="520" y="640" width="177.5" height="50" as="geometry" />
        </mxCell>
        <mxCell id="PEPabtiiQY726mJaul-J-34" style="edgeStyle=orthogonalEdgeStyle;rounded=0;orthogonalLoop=1;jettySize=auto;html=1;entryX=0.575;entryY=1.04;entryDx=0;entryDy=0;entryPerimeter=0;" parent="QJ0N2ptPAILmxP9ZiV2n-1" source="PEPabtiiQY726mJaul-J-32" target="PEPabtiiQY726mJaul-J-30" edge="1">
          <mxGeometry relative="1" as="geometry" />
        </mxCell>
        <mxCell id="PEPabtiiQY726mJaul-J-32" value="&lt;span&gt;Loads Position News&lt;/span&gt;&lt;br&gt;&lt;span&gt;(cis.svc/news)&lt;/span&gt;" style="shape=process;whiteSpace=wrap;html=1;backgroundOutline=1;" parent="QJ0N2ptPAILmxP9ZiV2n-1" vertex="1">
          <mxGeometry x="270" y="760" width="190" height="60" as="geometry" />
        </mxCell>
        <mxCell id="PEPabtiiQY726mJaul-J-36" value="&lt;font style=&quot;font-size: 14px&quot;&gt;&lt;b&gt;&lt;i&gt;Overview News &amp;amp; Insight&amp;nbsp;&lt;/i&gt;&lt;/b&gt;&lt;/font&gt;" style="text;html=1;align=center;verticalAlign=middle;resizable=0;points=[];autosize=1;" parent="QJ0N2ptPAILmxP9ZiV2n-1" vertex="1">
          <mxGeometry x="265" y="30" width="190" height="20" as="geometry" />
        </mxCell>
      </root>
    </mxGraphModel>
  </diagram>
</mxfile>
